# xmcd
#
# Track frame offsets: 
#        150
#        28383
#        61252
#        97806
#        120720
#        160792
#        190596
#        227951
#
# Disc length: 3469 seconds
#
# Revision: 1
# Processed by: cddbd v1.5.2PL0 Copyright (c) Steve Scherf et al.
# Submitted via: ExactAudioCopy v1.1
#
DISCID=600d8b08
DTITLE=Miles Davis, 1955 - CD04_Blue Mood - Quintet／Sextet
DYEAR=2013
DGENRE=Jazz
TTITLE0=Nature Boy
TTITLE1=Alone Together
TTITLE2=There's No You
TTITLE3=Easy Living
TTITLE4=Dr Jackle
TTITLE5=Bitty Ditty
TTITLE6=Minor March
TTITLE7=Changes
EXTD=YEAR: 1955
EXTT0=
EXTT1=
EXTT2=
EXTT3=
EXTT4=
EXTT5=
EXTT6=
EXTT7=
PLAYORDER=
